HIERARCHY
ROOT Hips
{
	OFFSET 0.000000 0.000000 0.000000
	CHANNELS 6 Xposition Yposition Zposition Zrotation Yrotation Xrotation 
	JOINT LeftUpLeg_virtual
	{
		OFFSET 0.000000 0.000000 0.000000
		CHANNELS 3 Zrotation Yrotation Xrotation
		JOINT LeftUpLeg
		{
			OFFSET 8.479694 -4.795517 -0.379053
			CHANNELS 3 Zrotation Yrotation Xrotation
			JOINT LeftLeg
			{
				OFFSET 0.485052 -32.551468 0.112863
				CHANNELS 3 Zrotation Yrotation Xrotation
				JOINT LeftFoot
				{
					OFFSET 0.438033 -32.635670 -3.012641
					CHANNELS 3 Zrotation Yrotation Xrotation
					JOINT LeftToeBase
					{
						OFFSET 0.970169 -13.225353 11.864223
						CHANNELS 3 Zrotation Yrotation Xrotation
						End Site
						{
							OFFSET 0.000000 0.000000 0.000000
						}
					}
				}
			}
		}
	}
	JOINT RightUpLeg_virtual
	{
		OFFSET 0.000000 0.000000 0.000000
		CHANNELS 3 Zrotation Yrotation Xrotation
		JOINT RightUpLeg
		{
			OFFSET -8.479694 -4.795517 -0.379053
			CHANNELS 3 Zrotation Yrotation Xrotation
			JOINT RightLeg
			{
				OFFSET -0.484100 -32.551483 0.112903
				CHANNELS 3 Zrotation Yrotation Xrotation
				JOINT RightFoot
				{
					OFFSET -0.438985 -32.635651 -3.012681
					CHANNELS 3 Zrotation Yrotation Xrotation
					JOINT RightToeBase
					{
						OFFSET -0.970169 -13.225354 11.864223
						CHANNELS 3 Zrotation Yrotation Xrotation
						End Site
						{
							OFFSET 0.000000 0.000000 0.000000
						}
					}
				}
			}
		}
	}
	JOINT Spine_virtual
	{
		OFFSET 0.000000 0.000000 0.000000
		CHANNELS 3 Zrotation Yrotation Xrotation
		JOINT Spine
		{
			OFFSET 0.000000 7.722015 1.166203
			CHANNELS 3 Zrotation Yrotation Xrotation
			JOINT Spine1
			{
				OFFSET 0.000000 12.024086 0.248766
				CHANNELS 3 Zrotation Yrotation Xrotation
				JOINT Spine2
				{
					OFFSET -0.000000 11.503036 -0.491240
					CHANNELS 3 Zrotation Yrotation Xrotation
					JOINT Neck_virtual
					{
						OFFSET 0.000000 0.000000 0.000000
						CHANNELS 3 Zrotation Yrotation Xrotation
						JOINT Neck
						{
							OFFSET 0.000000 18.430687 -3.123054
							CHANNELS 3 Zrotation Yrotation Xrotation
							JOINT Head
							{
								OFFSET -0.000000 9.051071 1.034021
								CHANNELS 3 Zrotation Yrotation Xrotation
								End Site
								{
									OFFSET 0.000000 0.000000 0.000000
								}
							}
						}
					}
					JOINT LeftShoulder_virtual
					{
						OFFSET 0.000000 0.000000 0.000000
						CHANNELS 3 Zrotation Yrotation Xrotation
						JOINT LeftShoulder
						{
							OFFSET 6.197824 13.665230 -4.064723
							CHANNELS 3 Zrotation Yrotation Xrotation
							JOINT LeftArm
							{
								OFFSET 7.778132 -0.187073 -1.709282
								CHANNELS 3 Zrotation Yrotation Xrotation
								JOINT LeftForeArm
								{
									OFFSET 21.954697 0.000000 -2.041093
									CHANNELS 3 Zrotation Yrotation Xrotation
									JOINT LeftHand
									{
										OFFSET 22.992908 0.000000 -0.870901
										CHANNELS 3 Zrotation Yrotation Xrotation
										End Site
										{
											OFFSET 0.000000 0.000000 0.000000
										}
									}
								}
							}
						}
					}
					JOINT RightShoulder_virtual
					{
						OFFSET 0.000000 0.000000 0.000000
						CHANNELS 3 Zrotation Yrotation Xrotation
						JOINT RightShoulder
						{
							OFFSET -6.197824 13.665230 -4.064723
							CHANNELS 3 Zrotation Yrotation Xrotation
							JOINT RightArm
							{
								OFFSET -7.778132 -0.187073 -1.709282
								CHANNELS 3 Zrotation Yrotation Xrotation
								JOINT RightForeArm
								{
									OFFSET -21.954697 0.000000 -2.041093
									CHANNELS 3 Zrotation Yrotation Xrotation
									JOINT RightHand
									{
										OFFSET -22.992908 0.000000 -0.870901
										CHANNELS 3 Zrotation Yrotation Xrotation
										End Site
										{
											OFFSET 0.000000 0.000000 0.000000
										}
									}
								}
							}
						}
					}
				}
			}
		}
	}
}
MOTION
Frames: 12
Frame Time: 0.033333
-25.553345 27.745140 110.213470 -179.973777 9.825609 -179.993503 13.493081 -4.786736 -42.294457 -13.217154 9.098895 -90.281768 20.617804 -1.513042 103.943718 0.452962 -20.081880 1.088601 0.000000 0.000000 0.000000 1.355454 6.399333 -38.937167 14.335310 -2.658215 -88.397114 -6.302064 -3.302036 85.373185 1.218150 21.444801 5.315976 0.000000 0.000000 0.000000 -0.080995 6.170143 -25.033977 -3.298906 -6.763206 -0.865535 -0.084452 -0.421907 7.767360 -0.023948 -0.004189 0.013542 -1.204521 0.198577 14.776240 -0.719106 -3.043366 11.122008 0.000000 0.000000 0.000000 3.214912 0.977401 9.210768 -13.373287 0.254517 13.158035 -69.444733 48.356435 23.187183 -0.296546 -22.363274 19.170717 0.000000 0.000000 0.000000 -3.575365 2.766415 8.604973 25.523717 2.157767 11.009777 43.270618 -49.030458 48.938217 -10.122573 39.262663 -5.191653 0.000000 0.000000 0.000000 
-25.345705 27.757969 109.896446 -179.948164 9.591565 -179.984063 13.389679 -5.327113 -41.569597 -13.945357 8.583651 -91.516837 21.033091 -1.149709 105.941575 0.189018 -20.797279 1.165268 0.000000 0.000000 0.000000 1.438051 5.892724 -38.123374 15.129352 -2.425362 -89.606802 -6.629936 -3.332384 89.407258 0.611545 22.397368 5.141474 0.000000 0.000000 0.000000 -0.075425 5.757674 -24.103668 -3.291218 -6.600236 -0.268100 -0.022577 -0.395425 7.856204 0.012858 0.003605 0.016330 -1.142425 0.217019 14.802444 -0.628516 -2.862339 10.495036 0.000000 0.000000 0.000000 3.291614 1.041573 9.281454 -13.840306 0.421704 13.191460 -68.427793 47.917510 23.310939 -0.253832 -22.029279 19.084568 0.000000 0.000000 0.000000 -3.554580 2.786088 8.628589 25.877234 2.578978 11.191784 42.904083 -48.002925 50.533732 -10.168024 39.217256 -5.129980 0.000000 0.000000 0.000000 
-25.068754 27.765568 109.667458 -179.987492 9.249045 -179.993708 13.494681 -5.751549 -40.747023 -14.360621 8.082552 -92.661031 21.455917 -0.956957 107.405114 -0.028009 -21.407341 1.131168 0.000000 0.000000 0.000000 1.619814 5.323500 -37.259351 15.827560 -2.198458 -90.868379 -6.931650 -3.329547 93.020585 0.141699 23.253871 5.190593 0.000000 0.000000 0.000000 0.036358 5.284404 -22.959438 -3.420686 -6.456172 0.315179 0.025721 -0.399145 7.927235 0.021852 -0.022348 0.014971 -1.063120 0.265115 14.742089 -0.532157 -2.654261 9.879519 0.000000 0.000000 0.000000 3.403877 0.996283 9.191080 -14.101822 0.687865 13.282567 -67.515231 47.331855 23.359267 -0.237866 -21.711508 19.038017 0.000000 0.000000 0.000000 -3.504260 2.872958 8.643435 26.254496 3.092683 11.403529 42.856206 -46.835755 51.990574 -10.210380 39.003160 -5.099779 0.000000 0.000000 0.000000 
-24.844816 27.798779 109.509544 -179.982055 8.910980 -179.994978 13.788146 -6.000792 -39.788362 -14.515547 7.621907 -93.675532 21.867791 -0.867660 108.175553 -0.282619 -22.003770 0.967789 0.000000 0.000000 0.000000 2.026519 4.980219 -36.244433 16.282474 -2.014523 -92.202185 -7.383409 -3.414462 96.159249 -0.059832 24.145214 5.618022 0.000000 0.000000 0.000000 0.307978 4.879451 -21.558261 -3.524325 -6.270735 0.786666 0.077986 -0.366840 7.917948 0.032452 -0.017794 0.025819 -1.003531 0.264856 14.631544 -0.412500 -2.500126 9.268719 0.000000 0.000000 0.000000 3.462890 1.026390 9.197393 -14.340711 0.837608 13.170736 -66.490123 46.680474 23.790411 -0.223703 -21.417600 18.954053 0.000000 0.000000 0.000000 -3.482284 2.876398 8.584355 26.672128 3.504882 11.590322 43.111092 -45.640120 52.905044 -10.209944 38.662204 -5.068501 0.000000 0.000000 0.000000 
-24.688251 27.874624 109.364601 -179.999677 8.628737 -179.866338 14.089900 -6.159717 -38.656217 -14.598611 7.258468 -94.742845 22.285883 -0.877426 108.583704 -0.507537 -22.473737 0.729463 0.000000 0.000000 0.000000 2.401318 4.830949 -35.124627 16.724980 -1.930809 -93.710025 -7.612652 -3.503093 98.741955 -0.322193 24.707403 6.293878 0.000000 0.000000 0.000000 0.651596 4.639996 -20.070600 -3.616652 -6.085740 1.084225 0.085663 -0.335395 7.864699 0.016566 -0.003256 0.003602 -0.958364 0.228770 14.556509 -0.312344 -2.281515 8.733686 0.000000 0.000000 0.000000 3.499051 0.947117 9.175218 -14.601539 0.980997 13.100842 -65.799952 45.813794 24.069875 -0.192892 -21.081782 18.760971 0.000000 0.000000 0.000000 -3.482043 2.893751 8.554121 27.030730 3.848014 11.830632 43.527433 -44.554796 53.148414 -10.177056 38.284658 -5.078386 0.000000 0.000000 0.000000 
-24.558340 27.980309 109.237358 -179.879029 8.400718 -179.996617 14.429248 -6.178161 -37.366572 -14.788070 6.953125 -95.682583 22.656772 -0.881465 108.640087 -0.697665 -22.854079 0.340455 0.000000 0.000000 0.000000 3.030309 4.855327 -33.771689 16.991996 -1.905914 -95.047150 -8.030498 -3.629318 100.914850 -0.394167 25.159377 7.210595 0.000000 0.000000 0.000000 1.109143 4.541130 -18.387037 -3.611741 -5.899032 1.390590 0.094772 -0.310411 7.855671 0.010931 0.010146 0.000277 -0.967002 0.155690 14.405876 -0.209369 -2.066720 8.294120 0.000000 0.000000 0.000000 3.450117 1.005097 9.167143 -14.911556 0.942800 12.960554 -65.337023 44.908968 24.447621 -0.167171 -20.734323 18.641593 0.000000 0.000000 0.000000 -3.517760 2.837950 8.419906 27.269853 3.979535 11.950425 43.942504 -43.708918 53.096046 -10.112865 37.871258 -5.039958 0.000000 0.000000 0.000000 
-24.479877 28.095921 109.081207 -179.889534 8.318855 -179.987533 14.590503 -6.090719 -36.019597 -15.020665 6.590491 -96.491817 23.093727 -0.926176 109.075136 -1.004542 -23.007832 -1.058788 0.000000 0.000000 0.000000 3.436106 5.062961 -32.520832 17.331451 -1.958924 -96.419971 -8.404347 -3.761148 102.659041 -0.496980 25.499080 8.244299 0.000000 0.000000 0.000000 1.467644 4.396375 -16.925417 -3.583822 -5.677324 1.581439 0.057534 -0.278376 7.843562 0.001560 -0.115770 -0.010825 -0.924148 0.209916 14.277409 -0.146315 -1.804769 7.917443 0.000000 0.000000 0.000000 3.494336 1.017380 9.046799 -15.196375 1.049775 13.035588 -65.284458 43.892530 24.713079 -0.062105 -20.320453 18.438043 0.000000 0.000000 0.000000 -3.493963 2.865520 8.334073 27.435963 4.132270 12.141863 44.261388 -42.872732 52.662999 -10.001734 37.534324 -5.064746 0.000000 0.000000 0.000000 
-24.413128 28.190020 108.915520 179.970294 8.377416 179.900475 14.405572 -5.959032 -34.635992 -15.347488 6.052194 -96.988748 23.060074 -1.175649 109.658947 -1.039841 -23.121551 -2.722900 0.000000 0.000000 0.000000 3.690697 5.291695 -31.429819 17.645015 -2.041875 -97.520649 -8.757888 -3.941207 104.074727 -0.245165 26.020101 9.932296 0.000000 0.000000 0.000000 1.617469 4.407783 -15.593412 -3.529046 -5.566212 1.829657 0.006394 -0.364066 7.894441 0.019892 -0.003841 -0.010404 -0.924602 0.207304 14.138416 -0.080238 -1.549235 7.600446 0.000000 0.000000 0.000000 3.479886 1.041958 8.928316 -15.329098 0.935628 12.936935 -65.401691 43.038108 24.918822 -0.000554 -19.916437 18.282950 0.000000 0.000000 0.000000 -3.561872 2.854753 8.195312 27.525727 4.078327 12.265798 44.517769 -42.226309 52.353537 -9.890687 37.194461 -5.041020 0.000000 0.000000 0.000000 
-24.336542 28.254704 108.721466 179.968108 8.518112 -179.937550 14.471523 -5.806908 -33.648722 -15.702762 5.786698 -97.439752 22.899024 -1.377323 110.164750 -1.385816 -23.883338 -2.330259 0.000000 0.000000 0.000000 4.008462 5.593419 -30.571879 18.036576 -2.108986 -98.528505 -9.098734 -4.210968 105.099939 -0.216993 26.567674 11.919409 0.000000 0.000000 0.000000 1.756403 4.435127 -14.555580 -3.332410 -5.331585 1.984856 -0.078768 -0.388316 7.935064 0.086988 0.003696 0.020736 -0.937686 0.098413 14.065762 0.014158 -1.330454 7.345179 0.000000 0.000000 0.000000 3.441399 0.838620 8.832648 -15.286045 0.911559 12.792240 -65.663096 42.157089 25.272704 0.110118 -19.450700 18.026959 0.000000 0.000000 0.000000 -3.621626 2.749565 8.030298 27.566961 3.967288 12.372159 45.048455 -41.543881 51.841778 -9.655181 36.758712 -5.047925 0.000000 0.000000 0.000000 
-24.237564 28.299383 108.469421 179.982875 8.665433 -179.922414 14.468484 -5.631227 -32.871911 -16.219590 5.661791 -97.733252 22.653118 -1.626606 110.374375 -2.054933 -24.529694 -0.235562 0.000000 0.000000 0.000000 4.291148 5.884125 -29.570986 18.367473 -2.163421 -99.390365 -9.446110 -4.484670 105.826603 -0.512314 26.907950 13.229867 0.000000 0.000000 0.000000 1.750039 4.464614 -13.440553 -3.103207 -5.117359 2.165403 -0.068635 -0.443654 7.990223 0.017954 0.006568 0.011465 -0.974964 0.048403 13.965283 0.057473 -1.035045 7.136657 0.000000 0.000000 0.000000 3.414769 0.813197 8.735244 -15.103053 0.884296 12.752040 -66.088665 41.328102 25.297463 0.216652 -18.955763 17.807553 0.000000 0.000000 0.000000 -3.652771 2.683160 7.930691 27.614947 3.909870 12.451348 45.750765 -40.830017 51.402494 -9.438944 36.284366 -5.078267 0.000000 0.000000 0.000000 
-24.081230 28.337837 108.196419 -179.889465 8.963080 -179.910393 14.529076 -5.306714 -31.946789 -16.864166 5.648389 -97.913630 22.187926 -1.835178 110.415957 -2.126794 -25.684496 2.052112 0.000000 0.000000 0.000000 4.678811 6.334240 -28.510243 18.700675 -2.243211 -100.259199 -9.582446 -4.680402 106.318581 -0.988306 26.844375 13.683002 0.000000 0.000000 0.000000 1.811310 4.592990 -12.298993 -2.798230 -4.843358 2.351706 -0.064804 -0.489114 7.993000 -0.026555 -0.007095 -0.021239 -1.046073 0.023384 13.875226 0.133396 -0.811849 6.960720 0.000000 0.000000 0.000000 3.345255 0.800834 8.611226 -14.764548 0.874686 12.693146 -66.596189 40.705209 25.130790 0.433142 -18.466834 17.517072 0.000000 0.000000 0.000000 -3.723703 2.672405 7.858453 27.626298 3.741729 12.456550 46.611154 -40.126757 50.840943 -9.162102 35.816368 -5.178232 0.000000 0.000000 0.000000 
-23.888433 28.398964 107.877350 -179.994391 9.186473 179.989527 14.312237 -5.090968 -30.620838 -17.478239 5.532190 -97.832098 21.675202 -1.924186 110.578495 -2.024436 -27.065683 2.424299 0.000000 0.000000 0.000000 4.907739 6.730599 -27.254982 18.877490 -2.447071 -101.145860 -9.976669 -4.852031 106.874811 -1.554578 27.007002 13.442355 0.000000 0.000000 0.000000 1.787298 4.716941 -11.075427 -2.619024 -4.512051 2.571313 -0.228992 -0.469330 8.049570 -0.019710 0.013660 0.033980 -1.060572 0.065877 13.599749 0.238711 -0.641013 6.793478 0.000000 0.000000 0.000000 3.327120 0.742411 8.314322 -14.315084 0.933494 12.595348 -67.117551 40.352430 24.706392 0.606812 -18.063494 17.184160 0.000000 0.000000 0.000000 -3.734536 2.537513 7.570320 27.612117 3.526875 12.472929 47.689767 -39.539723 49.836943 -8.858643 35.504631 -5.243332 0.000000 0.000000 0.000000 
